<?xml version="1.0" encoding="utf-8"?>
<!-- Generator: Adobe Illustrator 24.2.0, SVG Export Plug-In . SVG Version: 6.00 Build 0)  -->
<svg version="1.1" id="Layer_1" xmlns="http://www.w3.org/2000/svg" xmlns:xlink="http://www.w3.org/1999/xlink" x="0px" y="0px"
	 viewBox="0 0 202.76 185.52" style="enable-background:new 0 0 202.76 185.52;" xml:space="preserve">
<style type="text/css">
	.st0{fill:none;stroke:#15A2D3;stroke-width:1.5;stroke-miterlimit:10;}
	.st1{fill:none;stroke:#15A2D3;stroke-width:1.5;stroke-linecap:round;stroke-linejoin:round;stroke-miterlimit:10;}
	.st2{fill:#EE617F;}
	.st3{fill:#FFFFFF;}
	.st4{fill:none;stroke:#EE617F;stroke-width:3;stroke-linecap:round;stroke-linejoin:round;stroke-miterlimit:10;}
	.st5{fill:none;stroke:#F9CF69;stroke-width:2;stroke-linecap:round;stroke-linejoin:round;stroke-miterlimit:10;}
	.st6{fill:none;stroke:#F9CF69;stroke-width:1.5;stroke-linecap:round;stroke-linejoin:round;stroke-miterlimit:10;}
	.st7{fill:none;stroke:#08B6A6;stroke-width:1.5;stroke-linecap:round;stroke-linejoin:round;stroke-miterlimit:10;}
	.st8{fill:#08B6A6;}
	.st9{fill:none;stroke:#08B6A6;stroke-width:2;stroke-linecap:round;stroke-linejoin:round;stroke-miterlimit:10;}
	.st10{fill:none;stroke:#15A2D3;stroke-width:3.5446;stroke-miterlimit:10;}
	.st11{fill:none;stroke:#15A2D3;stroke-width:3.5446;stroke-linecap:round;stroke-linejoin:round;stroke-miterlimit:10;}
	.st12{fill:none;stroke:#EE617F;stroke-width:7.0892;stroke-linecap:round;stroke-linejoin:round;stroke-miterlimit:10;}
	.st13{fill:none;stroke:#F9CF69;stroke-width:4.7262;stroke-linecap:round;stroke-linejoin:round;stroke-miterlimit:10;}
	.st14{fill:none;stroke:#F9CF69;stroke-width:3.5446;stroke-linecap:round;stroke-linejoin:round;stroke-miterlimit:10;}
	.st15{fill:none;stroke:#08B6A6;stroke-width:3.5446;stroke-linecap:round;stroke-linejoin:round;stroke-miterlimit:10;}
	.st16{fill:none;stroke:#08B6A6;stroke-width:4.7262;stroke-linecap:round;stroke-linejoin:round;stroke-miterlimit:10;}
</style>
<g>
	<circle class="st15" cx="70.57" cy="123.71" r="13.9"/>
	<circle class="st8" cx="70.57" cy="123.71" r="5.02"/>
	<circle class="st15" cx="150.73" cy="123.71" r="13.9"/>
	<circle class="st8" cx="150.73" cy="123.71" r="5.02"/>
	<polyline class="st16" points="40.76,90.78 40.76,47.91 131.86,47.91 131.86,120.25 87.43,120.25 	"/>
	<polyline class="st16" points="52.14,120.25 40.76,120.25 40.76,111.99 	"/>
	<line class="st16" x1="54.49" y1="111.99" x2="28.54" y2="111.99"/>
	<line class="st16" x1="64.21" y1="101.61" x2="38.25" y2="101.61"/>
	<polyline class="st16" points="70.57,80.06 84.47,93.91 107.97,70.01 	"/>
	<line class="st16" x1="89.27" y1="111.99" x2="124.94" y2="111.99"/>
	<path class="st16" d="M131.86,88.71h30.06c6.8,0,12.31,5.51,12.31,12.31v21.35h-9.77"/>
	<path class="st16" d="M131.86,57.4h20.6c5.46,0,9.88,4.42,9.88,9.88v21.44"/>
	<line class="st16" x1="131.86" y1="69.29" x2="162.34" y2="69.29"/>
	<path class="st16" d="M174.23,110.99h-5.02c-3.79,0-6.87-3.07-6.87-6.87v0c0-3.79,3.07-6.87,6.87-6.87h4.43"/>
</g>
</svg>
