<?xml version="1.0" encoding="utf-8"?>
<!-- Generator: Adobe Illustrator 24.2.0, SVG Export Plug-In . SVG Version: 6.00 Build 0)  -->
<svg version="1.1" id="Layer_1" xmlns="http://www.w3.org/2000/svg" xmlns:xlink="http://www.w3.org/1999/xlink" x="0px" y="0px"
	 viewBox="0 0 202.76 185.52" style="enable-background:new 0 0 202.76 185.52;" xml:space="preserve">
<style type="text/css">
	.st0{fill:none;stroke:#15A2D3;stroke-width:1.5;stroke-miterlimit:10;}
	.st1{fill:none;stroke:#15A2D3;stroke-width:1.5;stroke-linecap:round;stroke-linejoin:round;stroke-miterlimit:10;}
	.st2{fill:#EE617F;}
	.st3{fill:#FFFFFF;}
	.st4{fill:none;stroke:#EE617F;stroke-width:3;stroke-linecap:round;stroke-linejoin:round;stroke-miterlimit:10;}
	.st5{fill:none;stroke:#F9CF69;stroke-width:2;stroke-linecap:round;stroke-linejoin:round;stroke-miterlimit:10;}
	.st6{fill:none;stroke:#F9CF69;stroke-width:1.5;stroke-linecap:round;stroke-linejoin:round;stroke-miterlimit:10;}
	.st7{fill:none;stroke:#08B6A6;stroke-width:1.5;stroke-linecap:round;stroke-linejoin:round;stroke-miterlimit:10;}
	.st8{fill:#08B6A6;}
	.st9{fill:none;stroke:#08B6A6;stroke-width:2;stroke-linecap:round;stroke-linejoin:round;stroke-miterlimit:10;}
	.st10{fill:none;stroke:#15A2D3;stroke-width:3.5446;stroke-miterlimit:10;}
	.st11{fill:none;stroke:#15A2D3;stroke-width:3.5446;stroke-linecap:round;stroke-linejoin:round;stroke-miterlimit:10;}
	.st12{fill:none;stroke:#EE617F;stroke-width:7.0892;stroke-linecap:round;stroke-linejoin:round;stroke-miterlimit:10;}
	.st13{fill:none;stroke:#F9CF69;stroke-width:4.7262;stroke-linecap:round;stroke-linejoin:round;stroke-miterlimit:10;}
	.st14{fill:none;stroke:#F9CF69;stroke-width:3.5446;stroke-linecap:round;stroke-linejoin:round;stroke-miterlimit:10;}
	.st15{fill:none;stroke:#08B6A6;stroke-width:3.5446;stroke-linecap:round;stroke-linejoin:round;stroke-miterlimit:10;}
	.st16{fill:none;stroke:#08B6A6;stroke-width:4.7262;stroke-linecap:round;stroke-linejoin:round;stroke-miterlimit:10;}
</style>
<g>
	<polyline class="st13" points="167.7,104.48 132.86,104.48 132.86,157.74 167.7,157.74 	"/>
	<path class="st13" d="M132.86,110.4h-9.94l-18.8-21.46c-1.11-1.26-2.71-1.99-4.39-1.99h0c-4.76,0-7.52,5.4-4.73,9.25l10.27,14.19
		H84.08v40.64h39.52"/>
	<polyline class="st13" points="138.22,95.11 138.22,29.13 35.07,29.13 35.07,167.79 138.22,167.79 	"/>
	<polygon class="st14" points="87.88,42.97 92.05,50.84 100.83,52.38 94.64,58.79 95.88,67.61 87.88,63.7 79.87,67.61 81.12,58.79 
		74.92,52.38 83.7,50.84 	"/>
	<polygon class="st14" points="59.82,56.23 63.99,64.1 72.77,65.64 66.58,72.04 67.82,80.87 59.82,76.95 51.81,80.87 53.06,72.04 
		46.86,65.64 55.64,64.1 	"/>
	<polygon class="st14" points="113.79,56.23 117.96,64.1 126.74,65.64 120.54,72.04 121.79,80.87 113.79,76.95 105.78,80.87 
		107.03,72.04 100.83,65.64 109.61,64.1 	"/>
	<rect x="52.22" y="96.89" class="st14" width="15.18" height="15.18"/>
	<rect x="52.22" y="119.57" class="st14" width="15.18" height="15.18"/>
	<rect x="52.22" y="142.26" class="st14" width="15.18" height="15.18"/>
	<polyline class="st13" points="155.3,96.89 155.3,17.74 46.86,17.74 46.86,29.13 	"/>
</g>
</svg>
