<?xml version="1.0" encoding="utf-8"?>
<!-- Generator: Adobe Illustrator 24.2.0, SVG Export Plug-In . SVG Version: 6.00 Build 0)  -->
<svg version="1.1" id="Layer_1" xmlns="http://www.w3.org/2000/svg" xmlns:xlink="http://www.w3.org/1999/xlink" x="0px" y="0px"
	 viewBox="0 0 202.76 185.52" style="enable-background:new 0 0 202.76 185.52;" xml:space="preserve">
<style type="text/css">
	.st0{fill:none;stroke:#15A2D3;stroke-width:1.5;stroke-miterlimit:10;}
	.st1{fill:none;stroke:#15A2D3;stroke-width:1.5;stroke-linecap:round;stroke-linejoin:round;stroke-miterlimit:10;}
	.st2{fill:#EE617F;}
	.st3{fill:#FFFFFF;}
	.st4{fill:none;stroke:#EE617F;stroke-width:3;stroke-linecap:round;stroke-linejoin:round;stroke-miterlimit:10;}
	.st5{fill:none;stroke:#F9CF69;stroke-width:2;stroke-linecap:round;stroke-linejoin:round;stroke-miterlimit:10;}
	.st6{fill:none;stroke:#F9CF69;stroke-width:1.5;stroke-linecap:round;stroke-linejoin:round;stroke-miterlimit:10;}
	.st7{fill:none;stroke:#08B6A6;stroke-width:1.5;stroke-linecap:round;stroke-linejoin:round;stroke-miterlimit:10;}
	.st8{fill:#08B6A6;}
	.st9{fill:none;stroke:#08B6A6;stroke-width:2;stroke-linecap:round;stroke-linejoin:round;stroke-miterlimit:10;}
	.st10{fill:none;stroke:#15A2D3;stroke-width:3.5446;stroke-miterlimit:10;}
	.st11{fill:none;stroke:#15A2D3;stroke-width:3.5446;stroke-linecap:round;stroke-linejoin:round;stroke-miterlimit:10;}
	.st12{fill:none;stroke:#EE617F;stroke-width:7.0892;stroke-linecap:round;stroke-linejoin:round;stroke-miterlimit:10;}
	.st13{fill:none;stroke:#F9CF69;stroke-width:4.7262;stroke-linecap:round;stroke-linejoin:round;stroke-miterlimit:10;}
	.st14{fill:none;stroke:#F9CF69;stroke-width:3.5446;stroke-linecap:round;stroke-linejoin:round;stroke-miterlimit:10;}
	.st15{fill:none;stroke:#08B6A6;stroke-width:3.5446;stroke-linecap:round;stroke-linejoin:round;stroke-miterlimit:10;}
	.st16{fill:none;stroke:#08B6A6;stroke-width:4.7262;stroke-linecap:round;stroke-linejoin:round;stroke-miterlimit:10;}
</style>
<g>
	<path class="st10" d="M160.66,131.61H42.1c-6.84,0-12.39-5.55-12.39-12.39v-87.3c0-6.84,5.55-12.39,12.39-12.39h118.56
		c6.84,0,12.39,5.55,12.39,12.39v87.3C173.06,126.06,167.51,131.61,160.66,131.61z"/>
	<line class="st10" x1="29.71" y1="109.28" x2="173.06" y2="109.28"/>
	<rect x="47.12" y="63.29" class="st11" width="13.17" height="46"/>
	<rect x="60.3" y="63.29" class="st11" width="13.17" height="46"/>
	<rect x="92.67" y="73.34" class="st11" width="19.2" height="35.95"/>
	<rect x="92.67" y="96.11" class="st11" width="19.2" height="13.17"/>
	<polygon class="st11" points="47.12,63.29 60.3,43.64 73.47,63.29 	"/>
	<path class="st11" d="M102.27,38.73L94.1,48.74c-5.8,7.1-6.02,17.25-0.53,24.59l0,0h8.71h8.71l0,0c5.49-7.35,5.27-17.49-0.53-24.59
		L102.27,38.73z"/>
	<rect x="127.73" y="38.73" class="st11" width="26.79" height="70.56"/>
	<line class="st11" x1="154.52" y1="51.01" x2="144.25" y2="51.01"/>
	<line class="st11" x1="154.52" y1="66.64" x2="144.25" y2="66.64"/>
	<line class="st11" x1="154.52" y1="82.27" x2="144.25" y2="82.27"/>
	<line class="st11" x1="154.52" y1="97.9" x2="144.25" y2="97.9"/>
	<line class="st11" x1="87.48" y1="121.23" x2="106.91" y2="121.23"/>
	<line class="st11" x1="117.12" y1="121.23" x2="119.97" y2="121.23"/>
	<rect x="88.29" y="131.61" class="st11" width="26.18" height="18.09"/>
	<path class="st11" d="M114.78,149.7H87.98c-9,0-16.3,7.3-16.3,16.3v0h59.39v0C131.08,157,123.78,149.7,114.78,149.7z"/>
</g>
</svg>
